<?xml version="1.0" standalone="no"?>
<!DOCTYPE svg PUBLIC "-//W3C//DTD SVG 20010904//EN"
 "http://www.w3.org/TR/2001/REC-SVG-20010904/DTD/svg10.dtd">
<svg version="1.0" xmlns="http://www.w3.org/2000/svg"
 width="700.000000pt" height="700.000000pt" viewBox="0 0 700.000000 700.000000"
 preserveAspectRatio="xMidYMid meet">
<metadata>
Created by potrace 1.14, written by Peter Selinger 2001-2017
</metadata>
<g transform="translate(0.000000,700.000000) scale(0.100000,-0.100000)"
fill="#000000" stroke="none">
<path d="M2270 3501 l0 -3097 623 0 622 1 0 1400 0 1400 585 5 585 5 1 585 c0
322 -2 590 -4 596 -2 9 -160 12 -578 11 -316 0 -578 3 -581 7 -11 10 -9 967 1
974 5 3 281 5 613 4 l603 -1 4 22 c3 12 4 283 3 602 l-2 580 -1237 2 -1238 2
0 -3098z"/>
</g>
</svg>
