<svg xmlns="http://www.w3.org/2000/svg" xml:space="preserve" style="fill-rule:evenodd;clip-rule:evenodd;stroke-linejoin:round;stroke-miterlimit:2" viewBox="0 0 9060 5797"><path d="M4470.37 4226.28c-431.523 675.067-1186.03 1122.77-2043.91 1122.77C1087.26 5349.05.01 4258.07.01 2914.29c0-1343.78 1087.26-2434.76 2426.45-2434.76 828.554 0 1560.67 417.61 1998.52 1054.33-369.715-398.65-898.342-648.36-1484.93-648.36-1116.76 0-2023.43 905.077-2023.43 2019.88 0 1114.8 906.668 2019.88 2023.43 2019.88 611.038 0 1159.18-270.958 1530.32-698.973Z" style="fill:#9f1719"/><path d="M891.295 755.725C1406.369 286.343 2091.095 0 2842.175 0c1124.16 0 2099.68 641.456 2580.19 1578h-632.033c-466.062-790.68-1334.2-1322.72-2327.29-1322.72-586.537 0-1129.49 185.59-1571.75 500.443Zm4517.72 3488.05c-485.076 922.554-1453 1552.29-2566.84 1552.29-694.327 0-1331.95-244.704-1831.26-652.5 418.988 265.78 917.448 420.004 1452.13 420.004 991.87 0 1859.09-530.727 2325.57-1319.8h620.404Z" style="fill:#d11d1e"/><path d="M1842.2 1830.4v2062.52h454.868v-919.053h677.243v-341.969h-677.243v-320.604h2506.82v-480.898h-2961.69Z" style="fill:#9f1719;fill-rule:nonzero"/><path d="M3196.69 2401.44V3890.2h468.292v-852.178h967.096v-379.898h-967.096v-256.681H3196.69Z" style="fill:#d01d20;fill-rule:nonzero"/><path d="M3664.79 3402.24h1356.89v487.453H3664.79z" style="fill:#c31d1d"/><path d="M5011.11 1825.73h459.922v2064.52H5011.11z" style="fill:#9f1719"/><path d="m5013.66 1826.4 456.764-1.336 696.475 1162.17 723.067-1160.17.102 703.314-717.149 1218.28-1159.26-1922.26Z" style="fill:#d01d20;fill-rule:nonzero"/><path d="M6888.75 1825.73h448.929v1549.45H6888.75z" style="fill:#9f1719"/><path d="M8168.36 1809.57c-19.688 0-38.982.35-57.886 1.051a1385.598 1385.598 0 0 0-55.536 3.153 1229.631 1229.631 0 0 0-53.171 5.263c-17.332 2.104-34.274 4.553-50.821 7.358a968.062 968.062 0 0 0-48.464 9.467 864.374 864.374 0 0 0-46.1 11.577 775.427 775.427 0 0 0-43.749 13.671c-14.19 4.909-27.995 10.164-41.399 15.774a678.103 678.103 0 0 0-39.141 17.843 631.446 631.446 0 0 0-36.994 19.85 593.82 593.82 0 0 0-34.848 21.881 566.058 566.058 0 0 0-32.701 23.887 548.43 548.43 0 0 0-30.554 25.909 539.018 539.018 0 0 0-28.408 27.932 538.954 538.954 0 0 0-26.255 29.946 547.142 547.142 0 0 0-24.114 31.961 534.247 534.247 0 0 0-21.209 33.489 513.635 513.635 0 0 0-18.376 34.517 501.025 501.025 0 0 0-15.552 35.544 498.367 498.367 0 0 0-12.728 36.579 504 504 0 0 0-9.896 37.606 519.585 519.585 0 0 0-7.072 38.641 544.72 544.72 0 0 0-4.24 39.668 579.543 579.543 0 0 0-1.409 40.703c0 11.792.364 23.492 1.1 35.098a536.87 536.87 0 0 0 3.298 34.533 524.534 524.534 0 0 0 5.498 33.983 518.868 518.868 0 0 0 17.593 66.286 528.01 528.01 0 0 0 12.096 32.312 542.638 542.638 0 0 0 14.294 31.745 564.726 564.726 0 0 0 16.494 31.189 603.2 603.2 0 0 0 18.775 29.843 584.396 584.396 0 0 0 20.29 28.377 571.647 571.647 0 0 0 45.135 52.376 567.467 567.467 0 0 0 24.846 23.999 574.072 574.072 0 0 0 26.367 22.541 587.166 587.166 0 0 0 27.881 21.076 606.059 606.059 0 0 0 29.403 19.619c10.053 6.297 20.829 12.538 32.331 18.72 11.502 6.182 23.735 12.309 36.685 18.377 12.952 6.068 26.624 12.073 41.024 18.027 14.4 5.953 29.527 11.853 45.376 17.692 15.848 5.839 32.417 11.618 49.714 17.342 17.297 5.724 35.321 11.39 54.068 16.999 37.491 11.22 77.885 22.211 121.171 32.972 48.313 12.136 92.157 23.414 131.535 33.832 39.376 10.418 74.282 19.98 104.722 28.681 30.441 8.7 56.416 16.545 77.919 23.528 21.504 6.984 38.541 13.111 51.108 18.377 12.567 5.037 24.33 10.446 35.292 16.227 10.961 5.782 21.116 11.931 30.472 18.457 9.355 6.526 17.909 13.424 25.659 20.694 7.749 7.27 14.696 14.91 20.839 22.924a171.481 171.481 0 0 1 16.132 25.336c4.608 8.872 8.444 18.168 11.516 27.9 3.071 9.731 5.378 19.898 6.914 30.487 1.535 10.59 2.304 21.603 2.304 33.052 0 9.731-.546 19.272-1.649 28.617a225.613 225.613 0 0 1-4.949 27.454 217.548 217.548 0 0 1-8.246 26.299 220.046 220.046 0 0 1-11.545 25.137 233.203 233.203 0 0 1-14.845 23.975c-5.498 7.799-11.545 15.407-18.143 22.82-6.597 7.413-13.745 14.631-21.442 21.657-13.203 11.036-25.774 25.735-43.282 27.908l-532.428.828h-1037.15c-.941 0-1.788.402-2.402 1.051a3.693 3.693 0 0 0-.994 2.54v380.106c0 .995.379 1.89.994 2.539a3.286 3.286 0 0 0 2.402 1.051h1023.43s358.014 4.188 541.699-.134c7.297-.172 14.203-2.048 21.757-2.612 7.555-1.285 15.705-3.292 23.505-5.192a920.653 920.653 0 0 0 39.306-10.47c12.6-3.665 25.135-7.596 37.566-11.856a774.293 774.293 0 0 0 35.82-13.257 698.963 698.963 0 0 0 34.078-14.651 643.748 643.748 0 0 0 32.347-16.044 598.451 598.451 0 0 0 30.601-17.445 560.916 560.916 0 0 0 28.852-18.831 530.504 530.504 0 0 0 27.12-20.233 507.749 507.749 0 0 0 25.381-21.625 707.885 707.885 0 0 0 23.942-22.653 666.803 666.803 0 0 0 22.398-23.306 632.022 632.022 0 0 0 20.854-23.966 604.277 604.277 0 0 0 19.303-24.612 580.494 580.494 0 0 0 17.766-25.272 563.84 563.84 0 0 0 16.223-25.926 552.666 552.666 0 0 0 14.671-26.586 544.263 544.263 0 0 0 13.134-27.231 542.536 542.536 0 0 0 11.584-27.892 546.579 546.579 0 0 0 10.039-28.545 553.839 553.839 0 0 0 8.495-29.198 568.346 568.346 0 0 0 6.952-29.85 587.237 587.237 0 0 0 5.407-30.512 611.316 611.316 0 0 0 3.864-31.164 640.841 640.841 0 0 0 2.312-31.818c.517-10.715.776-21.537.776-32.47 0-15.112-.372-29.938-1.122-44.478a773.874 773.874 0 0 0-3.382-42.765 695.988 695.988 0 0 0-5.626-41.038 631.737 631.737 0 0 0-7.885-39.326 578.684 578.684 0 0 0-10.13-37.606 536.574 536.574 0 0 0-12.381-35.894 504.183 504.183 0 0 0-14.641-34.174 479.787 479.787 0 0 0-16.886-32.455 528.099 528.099 0 0 0-19.031-31.196 525.238 525.238 0 0 0-44.194-57.87 534.434 534.434 0 0 0-25.162-26.682 551.74 551.74 0 0 0-27.203-25.177 577.23 577.23 0 0 0-29.245-23.68 610.454 610.454 0 0 0-31.285-22.175 653.62 653.62 0 0 0-33.333-20.67c-11.311-6.755-23.512-13.468-36.602-20.137-13.091-6.669-27.071-13.291-41.943-19.874-14.87-6.583-30.63-13.122-47.281-19.619-16.652-6.497-34.197-12.953-52.629-19.364-18.432-6.411-37.749-12.785-57.961-19.11-20.212-6.325-41.316-12.607-63.308-18.847-21.993-6.239-44.876-12.43-68.648-18.584a3791.513 3791.513 0 0 0-73.988-18.337c-48.314-11.219-92.265-22.21-131.851-32.972-19.793-5.381-38.497-10.706-56.108-15.972-17.612-5.267-34.135-10.471-49.564-15.622-15.43-5.152-29.771-10.251-43.019-15.288-13.248-5.037-25.401-10.014-36.467-14.937-11.065-4.923-21.045-9.787-29.929-14.595-8.884-4.809-16.675-9.559-23.377-14.253-6.703-4.694-12.987-9.525-18.852-14.491-5.864-4.966-11.308-10.066-16.335-15.304-5.027-5.237-9.638-10.614-13.828-16.124a163.354 163.354 0 0 1-11.312-16.935 150.39 150.39 0 0 1-8.796-17.756 145.596 145.596 0 0 1-6.281-18.568 148.624 148.624 0 0 1-3.773-19.381c-.838-6.597-1.25-13.331-1.25-20.2 0-6.984.459-13.822 1.385-20.519a139.896 139.896 0 0 1 4.165-19.667 138.714 138.714 0 0 1 6.936-18.807 146.21 146.21 0 0 1 9.708-17.939c3.7-5.839 7.87-11.535 12.495-17.087 4.625-5.553 9.708-10.969 15.258-16.235 5.551-5.267 11.569-10.388 18.046-15.368 6.475-4.98 13.408-9.813 20.808-14.507 7.401-4.694 15.199-9.094 23.385-13.201 8.186-4.108 16.763-7.922 25.735-11.442 8.971-3.521 18.334-6.749 28.091-9.683 9.757-2.933 19.907-5.575 30.45-7.922 10.542-2.347 21.478-4.403 32.806-6.163 11.328-1.76 23.051-3.222 35.164-4.395a735.68 735.68 0 0 1 37.513-2.644 877.655 877.655 0 0 1 39.879-.883c13.684 0 26.972.339 39.87 1.011 12.899.672 25.409 1.68 37.521 3.026 12.114 1.345 23.837 3.03 35.165 5.048 11.327 2.017 22.264 4.372 32.806 7.062 10.542 2.691 20.692 5.714 30.449 9.077 9.757 3.363 19.12 7.064 28.092 11.1 8.971 4.035 17.548 8.405 25.734 13.114a260.77 260.77 0 0 1 23.378 15.136 213.504 213.504 0 0 1 21.238 17.668 229.4 229.4 0 0 1 19.295 20.71c6.109 7.413 11.897 15.339 17.36 23.768 5.463 8.429 10.6 17.364 15.417 26.809s9.317 19.398 13.488 29.859c4.172 10.461 8.02 21.431 11.546 32.908s6.729 23.465 9.61 35.958c2.88 12.493 5.432 25.49 7.666 38.999l407.174-17.859a859.779 859.779 0 0 0-2.199-36.221 795.993 795.993 0 0 0-3.66-35.153 740.181 740.181 0 0 0-5.137-34.095 690.23 690.23 0 0 0-6.597-33.028 647.403 647.403 0 0 0-8.058-31.969 610.533 610.533 0 0 0-9.535-30.909 580.196 580.196 0 0 0-10.996-29.843 557.12 557.12 0 0 0-12.464-28.776 539.558 539.558 0 0 0-13.926-27.717 526.413 526.413 0 0 0-15.393-26.657 518.766 518.766 0 0 0-16.863-25.591 518.047 518.047 0 0 0-18.324-24.532c-6.353-8-12.95-15.828-19.792-23.473a530.773 530.773 0 0 0-21.261-22.398 546.857 546.857 0 0 0-22.73-21.347 567.446 567.446 0 0 0-24.19-20.28 594.17 594.17 0 0 0-25.531-19.134 609.245 609.245 0 0 0-26.752-17.891 628.61 628.61 0 0 0-27.972-16.665 655.236 655.236 0 0 0-29.183-15.431 690.326 690.326 0 0 0-30.404-14.197 728.8 728.8 0 0 0-31.624-12.955 774.07 774.07 0 0 0-32.837-11.728 824.775 824.775 0 0 0-34.056-10.494c-23.11-6.583-47.026-12.342-71.759-17.279-24.733-4.937-50.283-9.05-76.639-12.341-26.356-3.292-53.524-5.76-81.504-7.405-27.979-1.646-56.767-2.469-86.369-2.469Z" style="fill:#9f1719;fill-rule:nonzero"/><path d="m.531-.263.14.044a.317.317 0 0 1-.107.174.306.306 0 0 1-.19.057.307.307 0 0 1-.235-.097.375.375 0 0 1-.092-.267c0-.119.031-.211.093-.277a.314.314 0 0 1 .242-.099c.088 0 .159.026.214.078a.28.28 0 0 1 .073.131l-.143.035a.153.153 0 0 0-.053-.088.15.15 0 0 0-.098-.032.163.163 0 0 0-.129.057c-.033.038-.05.099-.05.185 0 .09.017.155.049.193a.161.161 0 0 0 .226.021.21.21 0 0 0 .06-.115Z" style="fill-rule:nonzero" transform="matrix(237.73152 0 0 280.23216 5535.983 4459.432)"/><path d="M.073 0v-.716h.531v.121H.217v.159h.36v.121h-.36v.194h.4V0H.073Z" style="fill-rule:nonzero" transform="matrix(237.73152 0 0 280.23216 5707.695 4459.432)"/><path d="M.074 0v-.716h.141l.293.478v-.478h.134V0H.497L.208-.467V0H.074Z" style="fill-rule:nonzero" transform="matrix(237.73152 0 0 280.23216 5866.232 4459.432)"/><path d="M.234 0v-.595H.021v-.121H.59v.121H.378V0H.234Z" style="fill-rule:nonzero" transform="matrix(237.73152 0 0 280.23216 6037.944 4459.432)"/><path d="M.073 0v-.716h.304c.077 0 .133.007.167.019a.16.16 0 0 1 .083.069.207.207 0 0 1 .032.113.189.189 0 0 1-.048.133.223.223 0 0 1-.141.066.321.321 0 0 1 .077.06c.02.022.048.061.082.116L.717 0H.544L.439-.156a.961.961 0 0 0-.076-.105.12.12 0 0 0-.043-.03.253.253 0 0 0-.073-.008H.218V0H.073Zm.145-.413h.107a.547.547 0 0 0 .13-.009.08.08 0 0 0 .04-.03.09.09 0 0 0 .015-.054.085.085 0 0 0-.02-.058.086.086 0 0 0-.054-.028.992.992 0 0 0-.105-.003H.218v.182Z" style="fill-rule:nonzero" transform="matrix(237.73152 0 0 280.23216 6183.158 4459.432)"/><path d="M.043-.354a.45.45 0 0 1 .033-.183A.328.328 0 0 1 .235-.7.393.393 0 0 1 .39-.728c.105 0 .19.033.253.098a.38.38 0 0 1 .095.273.377.377 0 0 1-.094.271.331.331 0 0 1-.252.098.336.336 0 0 1-.254-.097.371.371 0 0 1-.095-.269Zm.149-.004c0 .081.019.142.057.184a.18.18 0 0 0 .142.063.18.18 0 0 0 .142-.063C.57-.215.588-.277.588-.36c0-.082-.018-.144-.054-.184a.182.182 0 0 0-.143-.06.185.185 0 0 0-.144.061c-.036.041-.055.102-.055.185Z" style="fill-rule:nonzero" transform="matrix(237.73152 0 0 280.23216 6354.82 4459.432)"/><path d="M.072-.716h.264c.06 0 .105.005.137.014a.233.233 0 0 1 .108.066.31.31 0 0 1 .068.116.515.515 0 0 1 .023.169c0 .059-.007.11-.022.152a.32.32 0 0 1-.076.127.262.262 0 0 1-.102.057A.44.44 0 0 1 .344 0H.072v-.716Zm.145.121v.474h.108c.04 0 .069-.002.087-.006a.128.128 0 0 0 .058-.03.14.14 0 0 0 .038-.069.457.457 0 0 0 .015-.131.421.421 0 0 0-.015-.128.152.152 0 0 0-.041-.069A.134.134 0 0 0 .4-.588a.696.696 0 0 0-.118-.007H.217Z" style="fill-rule:nonzero" transform="matrix(237.73152 0 0 280.23216 6605.775 4459.432)"/><path d="M.073 0v-.716h.531v.121H.217v.159h.36v.121h-.36v.194h.4V0H.073Z" style="fill-rule:nonzero" transform="matrix(237.73152 0 0 280.23216 6777.487 4459.432)"/><path d="M.074 0v-.716h.49v.121H.218v.17h.299v.121H.218V0H.074Z" style="fill-rule:nonzero" transform="matrix(237.73152 0 0 280.23216 7002.093 4459.432)"/><path d="M.043-.354a.45.45 0 0 1 .033-.183A.328.328 0 0 1 .235-.7.393.393 0 0 1 .39-.728c.105 0 .19.033.253.098a.38.38 0 0 1 .095.273.377.377 0 0 1-.094.271.331.331 0 0 1-.252.098.336.336 0 0 1-.254-.097.371.371 0 0 1-.095-.269Zm.149-.004c0 .081.019.142.057.184a.18.18 0 0 0 .142.063.18.18 0 0 0 .142-.063C.57-.215.588-.277.588-.36c0-.082-.018-.144-.054-.184a.182.182 0 0 0-.143-.06.185.185 0 0 0-.144.061c-.036.041-.055.102-.055.185Z" style="fill-rule:nonzero" transform="matrix(237.73152 0 0 280.23216 7147.308 4459.432)"/><path d="M.073 0v-.716h.304c.077 0 .133.007.167.019a.16.16 0 0 1 .083.069.207.207 0 0 1 .032.113.189.189 0 0 1-.048.133.223.223 0 0 1-.141.066.321.321 0 0 1 .077.06c.02.022.048.061.082.116L.717 0H.544L.439-.156a.961.961 0 0 0-.076-.105.12.12 0 0 0-.043-.03.253.253 0 0 0-.073-.008H.218V0H.073Zm.145-.413h.107a.547.547 0 0 0 .13-.009.08.08 0 0 0 .04-.03.09.09 0 0 0 .015-.054.085.085 0 0 0-.02-.058.086.086 0 0 0-.054-.028.992.992 0 0 0-.105-.003H.218v.182Z" style="fill-rule:nonzero" transform="matrix(237.73152 0 0 280.23216 7332.194 4459.432)"/><path d="M.071 0v-.716h.216l.13.488.128-.488h.217V0H.628v-.563L.486 0H.347L.205-.563V0H.071Z" style="fill-rule:nonzero" transform="matrix(237.73152 0 0 280.23216 7503.905 4459.432)"/><path d="M.718 0H.561L.499-.163H.212L.153 0H0l.279-.716h.153L.718 0ZM.452-.283.354-.549l-.097.266h.195Z" style="fill-rule:nonzero" transform="matrix(237.73152 0 0 280.23216 7701.916 4459.432)"/><path d="m.531-.263.14.044a.317.317 0 0 1-.107.174.306.306 0 0 1-.19.057.307.307 0 0 1-.235-.097.375.375 0 0 1-.092-.267c0-.119.031-.211.093-.277a.314.314 0 0 1 .242-.099c.088 0 .159.026.214.078a.28.28 0 0 1 .073.131l-.143.035a.153.153 0 0 0-.053-.088.15.15 0 0 0-.098-.032.163.163 0 0 0-.129.057c-.033.038-.05.099-.05.185 0 .09.017.155.049.193a.161.161 0 0 0 .226.021.21.21 0 0 0 .06-.115Z" style="fill-rule:nonzero" transform="matrix(237.73152 0 0 280.23216 7873.627 4459.432)"/><path d="M.068-.716h.145V0H.068z" style="fill-rule:nonzero" transform="matrix(237.73152 0 0 280.23216 8045.29 4459.432)"/><path d="M.043-.354a.45.45 0 0 1 .033-.183A.328.328 0 0 1 .235-.7.393.393 0 0 1 .39-.728c.105 0 .19.033.253.098a.38.38 0 0 1 .095.273.377.377 0 0 1-.094.271.331.331 0 0 1-.252.098.336.336 0 0 1-.254-.097.371.371 0 0 1-.095-.269Zm.149-.004c0 .081.019.142.057.184a.18.18 0 0 0 .142.063.18.18 0 0 0 .142-.063C.57-.215.588-.277.588-.36c0-.082-.018-.144-.054-.184a.182.182 0 0 0-.143-.06.185.185 0 0 0-.144.061c-.036.041-.055.102-.055.185Zm.11-.399.067-.146h.154l-.134.146H.302Z" style="fill-rule:nonzero" transform="matrix(237.73152 0 0 280.23216 8111.359 4459.432)"/><path d="M.074 0v-.716h.141l.293.478v-.478h.134V0H.497L.208-.467V0H.074Z" style="fill-rule:nonzero" transform="matrix(237.73152 0 0 280.23216 8296.244 4459.432)"/><path d="M.073 0v-.716h.531v.121H.217v.159h.36v.121h-.36v.194h.4V0H.073Z" style="fill-rule:nonzero" transform="matrix(237.73152 0 0 280.23216 5535.983 4748.854)"/><path d="M.071 0v-.716h.216l.13.488.128-.488h.217V0H.628v-.563L.486 0H.347L.205-.563V0H.071Z" style="fill-rule:nonzero" transform="matrix(237.73152 0 0 280.23216 5694.57 4748.854)"/><path d="M.073 0v-.716h.232a.85.85 0 0 1 .172.011.19.19 0 0 1 .103.07.225.225 0 0 1 .041.139.234.234 0 0 1-.024.111.194.194 0 0 1-.061.071.21.21 0 0 1-.075.034.803.803 0 0 1-.149.01H.217V0H.073Zm.144-.595v.203h.079a.368.368 0 0 0 .115-.011.092.092 0 0 0 .061-.091.096.096 0 0 0-.081-.096.725.725 0 0 0-.104-.005h-.07Z" style="fill-rule:nonzero" transform="matrix(237.73152 0 0 280.23216 5892.58 4748.854)"/><path d="M.073 0v-.716h.304c.077 0 .133.007.167.019a.16.16 0 0 1 .083.069.207.207 0 0 1 .032.113.189.189 0 0 1-.048.133.223.223 0 0 1-.141.066.321.321 0 0 1 .077.06c.02.022.048.061.082.116L.717 0H.544L.439-.156a.961.961 0 0 0-.076-.105.12.12 0 0 0-.043-.03.253.253 0 0 0-.073-.008H.218V0H.073Zm.145-.413h.107a.547.547 0 0 0 .13-.009.08.08 0 0 0 .04-.03.09.09 0 0 0 .015-.054.085.085 0 0 0-.02-.058.086.086 0 0 0-.054-.028.992.992 0 0 0-.105-.003H.218v.182Z" style="fill-rule:nonzero" transform="matrix(237.73152 0 0 280.23216 6051.167 4748.854)"/><path d="M.073 0v-.716h.531v.121H.217v.159h.36v.121h-.36v.194h.4V0H.073Z" style="fill-rule:nonzero" transform="matrix(237.73152 0 0 280.23216 6222.83 4748.854)"/><path d="m.036-.233.141-.014a.166.166 0 0 0 .051.104.153.153 0 0 0 .105.034c.047 0 .082-.01.105-.03.024-.02.036-.043.036-.069a.064.064 0 0 0-.015-.043.125.125 0 0 0-.052-.031 1.32 1.32 0 0 0-.116-.031.404.404 0 0 1-.163-.071.188.188 0 0 1 .054-.319.352.352 0 0 1 .141-.025c.09 0 .158.02.203.059a.209.209 0 0 1 .072.158l-.145.006C.447-.542.434-.568.413-.584.393-.6.362-.608.322-.608a.169.169 0 0 0-.099.025.055.055 0 0 0-.001.088.349.349 0 0 0 .132.048.68.68 0 0 1 .156.052.2.2 0 0 1 .08.072.215.215 0 0 1 .028.115.209.209 0 0 1-.131.195.408.408 0 0 1-.155.026.31.31 0 0 1-.209-.063.279.279 0 0 1-.087-.183Z" style="fill-rule:nonzero" transform="matrix(237.73152 0 0 280.23216 6381.416 4748.854)"/><path d="M.718 0H.561L.499-.163H.212L.153 0H0l.279-.716h.153L.718 0ZM.452-.283.354-.549l-.097.266h.195Z" style="fill-rule:nonzero" transform="matrix(237.73152 0 0 280.23216 6539.953 4748.854)"/><path d="M.073 0v-.716h.304c.077 0 .133.007.167.019a.16.16 0 0 1 .083.069.207.207 0 0 1 .032.113.189.189 0 0 1-.048.133.223.223 0 0 1-.141.066.321.321 0 0 1 .077.06c.02.022.048.061.082.116L.717 0H.544L.439-.156a.961.961 0 0 0-.076-.105.12.12 0 0 0-.043-.03.253.253 0 0 0-.073-.008H.218V0H.073Zm.145-.413h.107a.547.547 0 0 0 .13-.009.08.08 0 0 0 .04-.03.09.09 0 0 0 .015-.054.085.085 0 0 0-.02-.058.086.086 0 0 0-.054-.028.992.992 0 0 0-.105-.003H.218v.182Z" style="fill-rule:nonzero" transform="matrix(237.73152 0 0 280.23216 6711.665 4748.854)"/><path d="M.068-.716h.145V0H.068z" style="fill-rule:nonzero" transform="matrix(237.73152 0 0 280.23216 6883.327 4748.854)"/><path d="M.718 0H.561L.499-.163H.212L.153 0H0l.279-.716h.153L.718 0ZM.452-.283.354-.549l-.097.266h.195Z" style="fill-rule:nonzero" transform="matrix(237.73152 0 0 280.23216 6949.396 4748.854)"/><path d="M.077 0v-.71h.144v.589h.36V0H.077Z" style="fill-rule:nonzero" transform="matrix(237.73152 0 0 280.23216 7121.058 4748.854)"/><path d="M.261 0v-.301l-.262-.415h.169l.168.283.165-.283h.167L.405-.3V0H.261Z" style="fill-rule:nonzero" transform="matrix(237.73152 0 0 280.23216 7323.724 4748.854)"/><path d="m.036-.233.141-.014a.166.166 0 0 0 .051.104.153.153 0 0 0 .105.034c.047 0 .082-.01.105-.03.024-.02.036-.043.036-.069a.064.064 0 0 0-.015-.043.125.125 0 0 0-.052-.031 1.32 1.32 0 0 0-.116-.031.404.404 0 0 1-.163-.071.188.188 0 0 1 .054-.319.352.352 0 0 1 .141-.025c.09 0 .158.02.203.059a.209.209 0 0 1 .072.158l-.145.006C.447-.542.434-.568.413-.584.393-.6.362-.608.322-.608a.169.169 0 0 0-.099.025.055.055 0 0 0-.001.088.349.349 0 0 0 .132.048.68.68 0 0 1 .156.052.2.2 0 0 1 .08.072.215.215 0 0 1 .028.115.209.209 0 0 1-.131.195.408.408 0 0 1-.155.026.31.31 0 0 1-.209-.063.279.279 0 0 1-.087-.183Z" style="fill-rule:nonzero" transform="matrix(237.73152 0 0 280.23216 7544.072 4748.854)"/><path d="M.073 0v-.716h.531v.121H.217v.159h.36v.121h-.36v.194h.4V0H.073Z" style="fill-rule:nonzero" transform="matrix(237.73152 0 0 280.23216 7702.609 4748.854)"/><path d="M.073 0v-.716h.304c.077 0 .133.007.167.019a.16.16 0 0 1 .083.069.207.207 0 0 1 .032.113.189.189 0 0 1-.048.133.223.223 0 0 1-.141.066.321.321 0 0 1 .077.06c.02.022.048.061.082.116L.717 0H.544L.439-.156a.961.961 0 0 0-.076-.105.12.12 0 0 0-.043-.03.253.253 0 0 0-.073-.008H.218V0H.073Zm.145-.413h.107a.547.547 0 0 0 .13-.009.08.08 0 0 0 .04-.03.09.09 0 0 0 .015-.054.085.085 0 0 0-.02-.058.086.086 0 0 0-.054-.028.992.992 0 0 0-.105-.003H.218v.182Z" style="fill-rule:nonzero" transform="matrix(237.73152 0 0 280.23216 7861.196 4748.854)"/><path d="M.255 0 0-.716h.156l.181.53.176-.53h.153L.41 0H.255Z" style="fill-rule:nonzero" transform="matrix(237.73152 0 0 280.23216 8028.549 4748.854)"/><path d="M.068-.716h.145V0H.068z" style="fill-rule:nonzero" transform="matrix(237.73152 0 0 280.23216 8187.136 4748.854)"/><path d="m.531-.263.14.044a.317.317 0 0 1-.107.174.306.306 0 0 1-.19.057.307.307 0 0 1-.235-.097.375.375 0 0 1-.092-.267c0-.119.031-.211.093-.277a.314.314 0 0 1 .242-.099c.088 0 .159.026.214.078a.28.28 0 0 1 .073.131l-.143.035a.153.153 0 0 0-.053-.088.15.15 0 0 0-.098-.032.163.163 0 0 0-.129.057c-.033.038-.05.099-.05.185 0 .09.017.155.049.193a.161.161 0 0 0 .226.021.21.21 0 0 0 .06-.115Z" style="fill-rule:nonzero" transform="matrix(237.73152 0 0 280.23216 8253.205 4748.854)"/><path d="M.068-.716h.145V0H.068z" style="fill-rule:nonzero" transform="matrix(237.73152 0 0 280.23216 8424.867 4748.854)"/><path d="M.043-.354a.45.45 0 0 1 .033-.183A.328.328 0 0 1 .235-.7.393.393 0 0 1 .39-.728c.105 0 .19.033.253.098a.38.38 0 0 1 .095.273.377.377 0 0 1-.094.271.331.331 0 0 1-.252.098.336.336 0 0 1-.254-.097.371.371 0 0 1-.095-.269Zm.149-.004c0 .081.019.142.057.184a.18.18 0 0 0 .142.063.18.18 0 0 0 .142-.063C.57-.215.588-.277.588-.36c0-.082-.018-.144-.054-.184a.182.182 0 0 0-.143-.06.185.185 0 0 0-.144.061c-.036.041-.055.102-.055.185Z" style="fill-rule:nonzero" transform="matrix(237.73152 0 0 280.23216 8490.937 4748.854)"/><path d="m.036-.233.141-.014a.166.166 0 0 0 .051.104.153.153 0 0 0 .105.034c.047 0 .082-.01.105-.03.024-.02.036-.043.036-.069a.064.064 0 0 0-.015-.043.125.125 0 0 0-.052-.031 1.32 1.32 0 0 0-.116-.031.404.404 0 0 1-.163-.071.188.188 0 0 1 .054-.319.352.352 0 0 1 .141-.025c.09 0 .158.02.203.059a.209.209 0 0 1 .072.158l-.145.006C.447-.542.434-.568.413-.584.393-.6.362-.608.322-.608a.169.169 0 0 0-.099.025.055.055 0 0 0-.001.088.349.349 0 0 0 .132.048.68.68 0 0 1 .156.052.2.2 0 0 1 .08.072.215.215 0 0 1 .028.115.209.209 0 0 1-.131.195.408.408 0 0 1-.155.026.31.31 0 0 1-.209-.063.279.279 0 0 1-.087-.183Z" style="fill-rule:nonzero" transform="matrix(237.73152 0 0 280.23216 8675.822 4748.854)"/><path d="M.073 0v-.716h.232a.85.85 0 0 1 .172.011.19.19 0 0 1 .103.07.225.225 0 0 1 .041.139.234.234 0 0 1-.024.111.194.194 0 0 1-.061.071.21.21 0 0 1-.075.034.803.803 0 0 1-.149.01H.217V0H.073Zm.144-.595v.203h.079a.368.368 0 0 0 .115-.011.092.092 0 0 0 .061-.091.096.096 0 0 0-.081-.096.725.725 0 0 0-.104-.005h-.07Z" style="fill-rule:nonzero" transform="matrix(237.73152 0 0 280.23216 5535.983 5038.252)"/><path d="M.073 0v-.716h.304c.077 0 .133.007.167.019a.16.16 0 0 1 .083.069.207.207 0 0 1 .032.113.189.189 0 0 1-.048.133.223.223 0 0 1-.141.066.321.321 0 0 1 .077.06c.02.022.048.061.082.116L.717 0H.544L.439-.156a.961.961 0 0 0-.076-.105.12.12 0 0 0-.043-.03.253.253 0 0 0-.073-.008H.218V0H.073Zm.145-.413h.107a.547.547 0 0 0 .13-.009.08.08 0 0 0 .04-.03.09.09 0 0 0 .015-.054.085.085 0 0 0-.02-.058.086.086 0 0 0-.054-.028.992.992 0 0 0-.105-.003H.218v.182Z" style="fill-rule:nonzero" transform="matrix(237.73152 0 0 280.23216 5694.57 5038.252)"/><path d="M.043-.354a.45.45 0 0 1 .033-.183A.328.328 0 0 1 .235-.7.393.393 0 0 1 .39-.728c.105 0 .19.033.253.098a.38.38 0 0 1 .095.273.377.377 0 0 1-.094.271.331.331 0 0 1-.252.098.336.336 0 0 1-.254-.097.371.371 0 0 1-.095-.269Zm.149-.004c0 .081.019.142.057.184a.18.18 0 0 0 .142.063.18.18 0 0 0 .142-.063C.57-.215.588-.277.588-.36c0-.082-.018-.144-.054-.184a.182.182 0 0 0-.143-.06.185.185 0 0 0-.144.061c-.036.041-.055.102-.055.185Z" style="fill-rule:nonzero" transform="matrix(237.73152 0 0 280.23216 5866.232 5038.252)"/><path d="M.074 0v-.716h.49v.121H.218v.17h.299v.121H.218V0H.074Z" style="fill-rule:nonzero" transform="matrix(237.73152 0 0 280.23216 6051.167 5038.252)"/><path d="M.073 0v-.716h.531v.121H.217v.159h.36v.121h-.36v.194h.4V0H.073Z" style="fill-rule:nonzero" transform="matrix(237.73152 0 0 280.23216 6196.382 5038.252)"/><path d="m.036-.233.141-.014a.166.166 0 0 0 .051.104.153.153 0 0 0 .105.034c.047 0 .082-.01.105-.03.024-.02.036-.043.036-.069a.064.064 0 0 0-.015-.043.125.125 0 0 0-.052-.031 1.32 1.32 0 0 0-.116-.031.404.404 0 0 1-.163-.071.188.188 0 0 1 .054-.319.352.352 0 0 1 .141-.025c.09 0 .158.02.203.059a.209.209 0 0 1 .072.158l-.145.006C.447-.542.434-.568.413-.584.393-.6.362-.608.322-.608a.169.169 0 0 0-.099.025.055.055 0 0 0-.001.088.349.349 0 0 0 .132.048.68.68 0 0 1 .156.052.2.2 0 0 1 .08.072.215.215 0 0 1 .028.115.209.209 0 0 1-.131.195.408.408 0 0 1-.155.026.31.31 0 0 1-.209-.063.279.279 0 0 1-.087-.183Z" style="fill-rule:nonzero" transform="matrix(237.73152 0 0 280.23216 6354.919 5038.252)"/><path d="M.068-.716h.145V0H.068z" style="fill-rule:nonzero" transform="matrix(237.73152 0 0 280.23216 6513.506 5038.252)"/><path d="M.043-.354a.45.45 0 0 1 .033-.183A.328.328 0 0 1 .235-.7.393.393 0 0 1 .39-.728c.105 0 .19.033.253.098a.38.38 0 0 1 .095.273.377.377 0 0 1-.094.271.331.331 0 0 1-.252.098.336.336 0 0 1-.254-.097.371.371 0 0 1-.095-.269Zm.149-.004c0 .081.019.142.057.184a.18.18 0 0 0 .142.063.18.18 0 0 0 .142-.063C.57-.215.588-.277.588-.36c0-.082-.018-.144-.054-.184a.182.182 0 0 0-.143-.06.185.185 0 0 0-.144.061c-.036.041-.055.102-.055.185Z" style="fill-rule:nonzero" transform="matrix(237.73152 0 0 280.23216 6579.526 5038.252)"/><path d="M.074 0v-.716h.141l.293.478v-.478h.134V0H.497L.208-.467V0H.074Z" style="fill-rule:nonzero" transform="matrix(237.73152 0 0 280.23216 6764.461 5038.252)"/><path d="M.718 0H.561L.499-.163H.212L.153 0H0l.279-.716h.153L.718 0ZM.452-.283.354-.549l-.097.266h.195Z" style="fill-rule:nonzero" transform="matrix(237.73152 0 0 280.23216 6936.123 5038.252)"/><path d="M.077 0v-.71h.144v.589h.36V0H.077Z" style="fill-rule:nonzero" transform="matrix(237.73152 0 0 280.23216 7107.834 5038.252)"/><path d="M.073 0v-.716h.531v.121H.217v.159h.36v.121h-.36v.194h.4V0H.073Z" style="fill-rule:nonzero" transform="matrix(237.73152 0 0 280.23216 7253.049 5038.252)"/><path d="m.036-.233.141-.014a.166.166 0 0 0 .051.104.153.153 0 0 0 .105.034c.047 0 .082-.01.105-.03.024-.02.036-.043.036-.069a.064.064 0 0 0-.015-.043.125.125 0 0 0-.052-.031 1.32 1.32 0 0 0-.116-.031.404.404 0 0 1-.163-.071.188.188 0 0 1 .054-.319.352.352 0 0 1 .141-.025c.09 0 .158.02.203.059a.209.209 0 0 1 .072.158l-.145.006C.447-.542.434-.568.413-.584.393-.6.362-.608.322-.608a.169.169 0 0 0-.099.025.055.055 0 0 0-.001.088.349.349 0 0 0 .132.048.68.68 0 0 1 .156.052.2.2 0 0 1 .08.072.215.215 0 0 1 .028.115.209.209 0 0 1-.131.195.408.408 0 0 1-.155.026.31.31 0 0 1-.209-.063.279.279 0 0 1-.087-.183Z" style="fill-rule:nonzero" transform="matrix(237.73152 0 0 280.23216 7411.586 5038.252)"/></svg>