<svg width="775.968" height="213.894" viewBox="0 0 205.308 56.593" xml:space="preserve" xmlns:xlink="http://www.w3.org/1999/xlink" xmlns="http://www.w3.org/2000/svg"><defs><linearGradient id="c"><stop style="stop-color:#a94083;stop-opacity:1" offset="0"/><stop style="stop-color:#e08abb;stop-opacity:1" offset="1"/></linearGradient><linearGradient id="b"><stop style="stop-color:#3a3a3a;stop-opacity:1" offset="0"/><stop style="stop-color:#d3428d;stop-opacity:1" offset="1"/></linearGradient><linearGradient id="a"><stop style="stop-color:#df6bbe;stop-opacity:1" offset="0"/><stop style="stop-color:#d183ae;stop-opacity:1" offset=".5"/></linearGradient><linearGradient xlink:href="#a" id="d" x1="738.17" y1="740.378" x2="919.157" y2="740.378" gradientUnits="userSpaceOnUse" gradientTransform="matrix(1.02168 0 0 1.01772 -16.164 -93.004)"/><linearGradient xlink:href="#b" id="e" x1="980.757" y1="425.678" x2="920.299" y2="470.933" gradientUnits="userSpaceOnUse"/><linearGradient xlink:href="#c" id="f" x1="1202.082" y1="434.164" x2="1140.563" y2="451.134" gradientUnits="userSpaceOnUse"/></defs><g style="display:inline;opacity:1"><path d="M488.324 424.508v267.746h62.428V572.947h92.947v-44.392h-92.947v-41.62h344.045v-62.427H491.098Z" style="display:inline;fill:#d3428d;fill-opacity:1" transform="matrix(.20925 0 0 .20925 -102.184 -88.265)"/><g style="display:inline"><path d="M674.219 498.637v193.616h63.816V581.426h131.791v-49.407h-131.79v-33.382z" style="fill:#e08abb;fill-opacity:1;stroke-width:.981079" transform="matrix(.21074 0 0 .20887 -103.187 -88.074)"/><path style="fill:url(#d);stroke-width:1.01969" d="M738.01 628.794h184.91v63.394H738.01z" transform="matrix(.21074 0 0 .20887 -103.187 -88.074)"/></g><g style="display:inline"><path style="display:inline;fill:url(#e);fill-opacity:1;stroke-width:.98839" d="M923.237 423.902h63.121v268.006h-63.121z" transform="matrix(.20925 0 0 .20925 -102.184 -88.265)"/><path style="display:inline;fill:url(#f)" d="m923.587 423.988 62.688-.173 95.587 150.867 99.236-150.607.014 91.3-98.424 158.151z" transform="matrix(.20925 0 0 .20925 -102.184 -88.265)"/><path style="fill:#d3428d;fill-opacity:1;stroke-width:.97117" d="M1180.93 423.902h61.613v201.141h-61.613z" transform="matrix(.20925 0 0 .20925 -102.184 -88.265)"/></g><path d="M1356.549 421.804c-2.702 0-5.35.046-7.944.137-2.595.09-5.136.227-7.622.41-2.487.181-4.92.41-7.298.682-2.379.274-4.704.591-6.975.955-2.27.365-4.488.774-6.651 1.23-2.163.455-4.272.956-6.327 1.502a110.889 110.889 0 0 0-6.004 1.775 99.53 99.53 0 0 0-5.682 2.048c-1.84.728-3.63 1.5-5.372 2.316a88.37 88.37 0 0 0-5.077 2.577 82.385 82.385 0 0 0-4.783 2.84 77.727 77.727 0 0 0-4.488 3.101 74.376 74.376 0 0 0-4.193 3.364 71.313 71.313 0 0 0-10.812 11.662 68.971 68.971 0 0 0-2.91 4.347 65.526 65.526 0 0 0-2.523 4.481 63.34 63.34 0 0 0-2.134 4.614 62.388 62.388 0 0 0-3.105 9.63 64.236 64.236 0 0 0-.97 5.017 67.037 67.037 0 0 0-.582 5.15 71.19 71.19 0 0 0-.043 9.84c.1 1.506.252 3 .453 4.482a64.637 64.637 0 0 0 1.81 8.751 64.822 64.822 0 0 0 1.359 4.266 66.241 66.241 0 0 0 1.66 4.194 68.69 68.69 0 0 0 1.962 4.121 72.032 72.032 0 0 0 2.263 4.049 77.731 77.731 0 0 0 2.577 3.874 76.018 76.018 0 0 0 5.778 7.178 75.204 75.204 0 0 0 6.611 6.42 77.8 77.8 0 0 0 3.619 2.927 80.37 80.37 0 0 0 3.827 2.736c1.31.88 2.655 1.73 4.035 2.547a78.581 78.581 0 0 0 4.437 2.43c1.579.802 3.258 1.598 5.035 2.385 1.777.788 3.654 1.568 5.63 2.34 1.976.773 4.053 1.54 6.228 2.297a225.14 225.14 0 0 0 6.823 2.251 281.65 281.65 0 0 0 7.42 2.207 383.873 383.873 0 0 0 16.63 4.28c6.63 1.576 12.648 3.04 18.052 4.392a797.606 797.606 0 0 1 14.373 3.723c4.178 1.13 7.743 2.148 10.694 3.055 2.951.906 5.29 1.702 7.014 2.385a52.696 52.696 0 0 1 4.844 2.107 40.061 40.061 0 0 1 4.182 2.396 31.104 31.104 0 0 1 3.521 2.686 25.18 25.18 0 0 1 2.86 2.976 21.934 21.934 0 0 1 3.794 6.91c.422 1.264.739 2.584.95 3.959a28.28 28.28 0 0 1 .316 4.29c0 1.263-.075 2.502-.226 3.715a27.848 27.848 0 0 1-.68 3.564 27.132 27.132 0 0 1-1.131 3.414c-.453 1.113-.981 2.2-1.585 3.263a30.03 30.03 0 0 1-2.037 3.112 33.8 33.8 0 0 1-2.49 2.963c-.906.962-1.887 1.9-2.943 2.811-1.812 1.433-3.537 3.341-5.94 3.623l-73.072.108h-142.343a.464.464 0 0 0-.466.466v49.343a.464.464 0 0 0 .466.466h140.46l74.344-.017c1.243 0 2.416-.222 2.986-.34 1.079-.222 2.174-.431 3.226-.673 1.838-.423 3.636-.876 5.395-1.36 1.758-.482 3.477-.995 5.155-1.539a108.55 108.55 0 0 0 4.916-1.72 98.925 98.925 0 0 0 4.677-1.902c1.52-.665 3-1.359 4.44-2.083 1.44-.725 2.84-1.48 4.2-2.265 1.36-.785 2.679-1.6 3.96-2.444a72.657 72.657 0 0 0 3.721-2.627 68.828 68.828 0 0 0 3.484-2.807 94.965 94.965 0 0 0 3.286-2.94 88.87 88.87 0 0 0 3.074-3.026 83.577 83.577 0 0 0 2.862-3.111 79.204 79.204 0 0 0 2.649-3.195 75.635 75.635 0 0 0 2.438-3.281 70.734 70.734 0 0 0 6.043-10.352 68.404 68.404 0 0 0 4.133-11.117c.354-1.277.672-2.569.954-3.875.283-1.306.53-2.626.742-3.96.212-1.335.39-2.683.53-4.046.142-1.363.247-2.74.318-4.13.07-1.391.106-2.796.106-4.216 0-1.961-.05-3.886-.154-5.773a95.069 95.069 0 0 0-.464-5.552 85.8 85.8 0 0 0-.772-5.327 78.16 78.16 0 0 0-1.082-5.105 71.884 71.884 0 0 0-1.39-4.882 67.11 67.11 0 0 0-1.7-4.66 63.583 63.583 0 0 0-2.009-4.436 61.115 61.115 0 0 0-2.317-4.213 68.034 68.034 0 0 0-8.678-11.562 71.186 71.186 0 0 0-3.453-3.464 74.33 74.33 0 0 0-3.733-3.268 78.61 78.61 0 0 0-4.014-3.074 83.986 83.986 0 0 0-4.294-2.879 90.705 90.705 0 0 0-4.574-2.683 87.098 87.098 0 0 0-5.024-2.614 120.373 120.373 0 0 0-5.756-2.58 162.443 162.443 0 0 0-6.49-2.547 214.489 214.489 0 0 0-7.222-2.514 277.39 277.39 0 0 0-7.955-2.48 352.708 352.708 0 0 0-8.689-2.447 441.582 441.582 0 0 0-9.421-2.413 544.099 544.099 0 0 0-10.155-2.38c-6.63-1.457-12.662-2.883-18.095-4.28a333.486 333.486 0 0 1-7.7-2.074 235.248 235.248 0 0 1-6.803-2.028 158.895 158.895 0 0 1-5.904-1.984c-1.818-.654-3.486-1.3-5.005-1.94a60.84 60.84 0 0 1-4.108-1.894 33.38 33.38 0 0 1-3.208-1.85 35.474 35.474 0 0 1-2.587-1.882 29.138 29.138 0 0 1-2.242-1.986 24.466 24.466 0 0 1-1.898-2.093 21.159 21.159 0 0 1-1.552-2.199c-.46-.75-.863-1.519-1.208-2.305a18.2 18.2 0 0 1-1.38-4.926 19.686 19.686 0 0 1-.171-2.622c0-.907.063-1.795.19-2.664a17.29 17.29 0 0 1 1.524-4.994c.38-.796.824-1.571 1.332-2.33a21.288 21.288 0 0 1 1.715-2.217 25.32 25.32 0 0 1 2.094-2.108 31.05 31.05 0 0 1 2.477-1.995 38.653 38.653 0 0 1 2.855-1.883 37.417 37.417 0 0 1 3.21-1.714 43.704 43.704 0 0 1 3.532-1.485 51.806 51.806 0 0 1 3.855-1.257 61.92 61.92 0 0 1 4.18-1.029 74.278 74.278 0 0 1 4.502-.8 89.15 89.15 0 0 1 4.826-.57c1.662-.152 3.378-.267 5.148-.343 1.77-.077 3.595-.115 5.473-.115 1.878 0 3.702.044 5.472.131 1.77.088 3.487.218 5.15.393 1.662.175 3.271.393 4.826.655 1.554.262 3.055.568 4.502.917 1.447.35 2.84.742 4.18 1.178 1.338.437 2.623.917 3.855 1.441a40.86 40.86 0 0 1 3.531 1.703 36.106 36.106 0 0 1 3.209 1.965 28.96 28.96 0 0 1 2.915 2.293 30.52 30.52 0 0 1 2.648 2.689 33.63 33.63 0 0 1 2.382 3.085 38.338 38.338 0 0 1 2.116 3.48 44.948 44.948 0 0 1 1.851 3.876 53.643 53.643 0 0 1 1.585 4.272c.484 1.49.924 3.046 1.319 4.668a78.401 78.401 0 0 1 1.052 5.063l55.882-2.318a105.71 105.71 0 0 0-.302-4.702 97.96 97.96 0 0 0-.502-4.564 91.231 91.231 0 0 0-.705-4.426 85.293 85.293 0 0 0-.905-4.287 80.302 80.302 0 0 0-1.106-4.15 76.092 76.092 0 0 0-1.31-4.013 72.752 72.752 0 0 0-1.508-3.874 70.296 70.296 0 0 0-1.71-3.735 68.546 68.546 0 0 0-4.025-7.06 67.191 67.191 0 0 0-4.829-6.506 68.923 68.923 0 0 0-5.634-5.955 73.533 73.533 0 0 0-3.12-2.77 77.076 77.076 0 0 0-3.32-2.633 81.215 81.215 0 0 0-3.504-2.484 83.985 83.985 0 0 0-3.671-2.323 87.556 87.556 0 0 0-3.839-2.163 91.918 91.918 0 0 0-4.005-2.003 97.207 97.207 0 0 0-4.173-1.843 103.288 103.288 0 0 0-4.34-1.682 110.22 110.22 0 0 0-4.507-1.522c-1.53-.481-3.088-.935-4.674-1.363a131.945 131.945 0 0 0-9.848-2.243 154.18 154.18 0 0 0-10.518-1.602 181.167 181.167 0 0 0-11.186-.961c-3.84-.214-7.791-.32-11.854-.32z" style="font-weight:700;font-stretch:condensed;font-size:414.756px;font-family:Arial;-inkscape-font-specification:'Arial Bold Condensed';display:inline;opacity:1;fill:#d3428d;stroke-width:2.16017;paint-order:markers fill stroke" transform="matrix(.20925 0 0 .20925 -102.184 -88.265)"/></g></svg>